<?xml version="1.0" standalone="no"?>
<svg xmlns:xlink="http://www.w3.org/1999/xlink" id="wave" style="transform:rotate(0deg); transition: 0.3s" viewBox="0 0 1440 490" version="1.1" xmlns="http://www.w3.org/2000/svg"><defs><linearGradient id="sw-gradient-0" x1="0" x2="0" y1="1" y2="0"><stop stop-color="rgba(103.506, 83.807, 173.491, 1)" offset="0%"/><stop stop-color="rgba(111.987, 171.883, 219.027, 1)" offset="100%"/></linearGradient></defs><path style="transform:translate(0, 0px); opacity:1" fill="url(#sw-gradient-0)" d="M0,441L40,416.5C80,392,160,343,240,302.2C320,261,400,229,480,212.3C560,196,640,196,720,228.7C800,261,880,327,960,343C1040,359,1120,327,1200,318.5C1280,310,1360,327,1440,285.8C1520,245,1600,147,1680,98C1760,49,1840,49,1920,114.3C2000,180,2080,310,2160,318.5C2240,327,2320,212,2400,212.3C2480,212,2560,327,2640,375.7C2720,425,2800,408,2880,367.5C2960,327,3040,261,3120,212.3C3200,163,3280,131,3360,122.5C3440,114,3520,131,3600,179.7C3680,229,3760,310,3840,359.3C3920,408,4000,425,4080,408.3C4160,392,4240,343,4320,302.2C4400,261,4480,229,4560,212.3C4640,196,4720,196,4800,204.2C4880,212,4960,229,5040,212.3C5120,196,5200,147,5280,114.3C5360,82,5440,65,5520,89.8C5600,114,5680,180,5720,212.3L5760,245L5760,490L5720,490C5680,490,5600,490,5520,490C5440,490,5360,490,5280,490C5200,490,5120,490,5040,490C4960,490,4880,490,4800,490C4720,490,4640,490,4560,490C4480,490,4400,490,4320,490C4240,490,4160,490,4080,490C4000,490,3920,490,3840,490C3760,490,3680,490,3600,490C3520,490,3440,490,3360,490C3280,490,3200,490,3120,490C3040,490,2960,490,2880,490C2800,490,2720,490,2640,490C2560,490,2480,490,2400,490C2320,490,2240,490,2160,490C2080,490,2000,490,1920,490C1840,490,1760,490,1680,490C1600,490,1520,490,1440,490C1360,490,1280,490,1200,490C1120,490,1040,490,960,490C880,490,800,490,720,490C640,490,560,490,480,490C400,490,320,490,240,490C160,490,80,490,40,490L0,490Z"/><defs><linearGradient id="sw-gradient-1" x1="0" x2="0" y1="1" y2="0"><stop stop-color="rgba(243, 106, 62, 1)" offset="0%"/><stop stop-color="rgba(255, 179, 11, 1)" offset="100%"/></linearGradient></defs><path style="transform:translate(0, 50px); opacity:0.9" fill="url(#sw-gradient-1)" d="M0,98L40,81.7C80,65,160,33,240,49C320,65,400,131,480,171.5C560,212,640,229,720,269.5C800,310,880,376,960,392C1040,408,1120,376,1200,359.3C1280,343,1360,343,1440,334.8C1520,327,1600,310,1680,294C1760,278,1840,261,1920,253.2C2000,245,2080,245,2160,277.7C2240,310,2320,376,2400,408.3C2480,441,2560,441,2640,400.2C2720,359,2800,278,2880,253.2C2960,229,3040,261,3120,294C3200,327,3280,359,3360,326.7C3440,294,3520,196,3600,147C3680,98,3760,98,3840,138.8C3920,180,4000,261,4080,253.2C4160,245,4240,147,4320,130.7C4400,114,4480,180,4560,228.7C4640,278,4720,310,4800,302.2C4880,294,4960,245,5040,245C5120,245,5200,294,5280,302.2C5360,310,5440,278,5520,220.5C5600,163,5680,82,5720,40.8L5760,0L5760,490L5720,490C5680,490,5600,490,5520,490C5440,490,5360,490,5280,490C5200,490,5120,490,5040,490C4960,490,4880,490,4800,490C4720,490,4640,490,4560,490C4480,490,4400,490,4320,490C4240,490,4160,490,4080,490C4000,490,3920,490,3840,490C3760,490,3680,490,3600,490C3520,490,3440,490,3360,490C3280,490,3200,490,3120,490C3040,490,2960,490,2880,490C2800,490,2720,490,2640,490C2560,490,2480,490,2400,490C2320,490,2240,490,2160,490C2080,490,2000,490,1920,490C1840,490,1760,490,1680,490C1600,490,1520,490,1440,490C1360,490,1280,490,1200,490C1120,490,1040,490,960,490C880,490,800,490,720,490C640,490,560,490,480,490C400,490,320,490,240,490C160,490,80,490,40,490L0,490Z"/></svg>